<svg xmlns="http://www.w3.org/2000/svg" viewBox="0 0 64 64" fill="none" stroke="#22d3ee" stroke-linejoin="round" stroke-linecap="round">
  <title>V-Guards</title>
  <rect width="64" height="64" rx="14" fill="#09090b" stroke="none"/>
  <path d="M32 6 L54 13.5 L54 31 Q54 49 32 58 Q10 49 10 31 L10 13.5 Z" stroke-width="2.6"/>
  <path d="M26 24 Q20.5 23.5 19 18 Q25 17.5 29 23 Z" fill="#22d3ee" stroke-width="1.6"/>
  <path d="M38 24 Q43.5 23.5 45 18 Q39 17.5 35 23 Z" fill="#22d3ee" stroke-width="1.6"/>
  <path d="M27.5 22.5 Q19 26 19.5 35 Q20 41 24.5 45 Q28 47.5 32 47.5 Q36 47.5 39.5 45 Q44 41 44.5 35 Q45 26 36.5 22.5" stroke-width="1.8"/>
  <path d="M19.7 33 L16.6 32.2 M20.2 37 L17.2 37.8 M44.3 33 L47.4 32.2 M43.8 37 L46.8 37.8" stroke-width="1.2" stroke-opacity="0.8"/>
  <path d="M19 31 Q25 28 30 31 Q31 32.5 32 31.5 Q33 32.5 34 31 Q39 28 45 31 Q46 36 40.5 38 Q35 40 33 36.5 Q32 35 31 36.5 Q29 40 23.5 38 Q18 36 19 31 Z" fill="#22d3ee" stroke-width="1"/>
  <circle cx="25.5" cy="33.2" r="2.3" fill="#09090b" stroke="none"/>
  <circle cx="38.5" cy="33.2" r="2.3" fill="#09090b" stroke="none"/>
  <circle cx="26.2" cy="32.4" r="0.75" fill="#22d3ee" stroke="none"/>
  <circle cx="39.2" cy="32.4" r="0.75" fill="#22d3ee" stroke="none"/>
  <path d="M32 38.5 L32 42.5" stroke-width="1.3"/>
  <path d="M29 43.5 Q32 41 35 43.5 Q32 46.8 29 43.5 Z" fill="#22d3ee" stroke-width="0.8"/>
</svg>
