<svg xmlns="http://www.w3.org/2000/svg" height="2048" preserveAspectRatio="xMidYMid meet" style="display: block;" version="1.1" viewBox="0 0 2048 2048" width="2048">

<path d="M 1012.25 444.528 C 1040.89 443.641 1071.38 445.638 1099.87 448.317 C 1202.53 457.814 1303.06 483.396 1397.78 524.126 C 1416.25 531.937 1434.66 540.227 1452.41 549.587 C 1489.22 569.001 1511.38 605.299 1511.71 646.97 C 1511.99 683.197 1511.73 719.223 1511.61 755.357 L 1511.76 913.812 L 1511.71 1030.24 C 1511.73 1062 1512.35 1093.52 1509.53 1125.21 C 1496.25 1274.08 1423.59 1420.89 1301.15 1509.44 C 1222.74 1566.15 1134.25 1600.43 1037.25 1603.18 C 1036.34 1603.22 1035.44 1603.26 1034.53 1603.29 C 913.206 1607.25 792.85 1556.95 704.822 1474.53 C 600.53 1374.94 540.121 1237.97 536.909 1093.81 C 535.876 1060.03 536.747 1022.5 536.777 988.359 L 536.843 792.483 L 536.814 691.941 C 536.789 674.519 535.779 644.332 538.463 628.335 C 542.217 606.967 552.218 587.192 567.205 571.505 C 584.991 552.827 615.357 539.902 638.967 529.214 C 756.492 476.341 883.418 447.545 1012.25 444.528 z" fill="rgb(34,211,238)" transform="translate(0,0)"></path>
<path d="M 1013.05 503.46 C 1039.43 502.516 1071.34 504.713 1097.49 507.244 C 1194.2 515.917 1288.87 540.172 1377.84 579.069 C 1463.07 616.557 1455.04 617.1 1455.03 707.203 L 1455.02 846.561 L 1454.99 1015.37 C 1454.97 1050.53 1456.27 1092.06 1452.89 1126.55 C 1443.3 1224.65 1408.5 1309.6 1350.25 1388.06 C 1313.48 1366.28 1254.36 1348.56 1212.12 1347.86 C 1136.66 1346.59 1045.66 1377.48 979.899 1412.11 C 929.513 1438.87 888.663 1466.82 849.617 1508.56 C 841.605 1504.35 833.57 1500.1 825.726 1495.66 C 680.226 1413.16 594.119 1247.42 594.674 1082.05 C 594.76 1056.22 594.61 1029.74 594.587 1003.64 L 594.641 805.863 L 594.799 696.963 C 594.661 617.21 588.766 617.28 663.121 582.843 C 773.152 532.86 892.224 505.848 1013.05 503.46 z" fill="rgb(9,9,11)" transform="translate(0,0)"></path>
<path d="M 1150.73 696.053 C 1180.82 659.692 1218.65 635.465 1265.88 628.438 C 1287.74 625.187 1326.38 625.506 1345.45 638.802 C 1357.44 647.169 1362.76 674.704 1364.36 688.993 C 1370.92 747.746 1355.85 797.679 1320.53 843.906 C 1336.32 871.105 1352.73 903.198 1363 932.986 C 1384.28 994.719 1390.54 1036.58 1434.87 1088.43 C 1391.13 1109.11 1325.36 1161.07 1285.49 1191.72 C 1232.96 1232.21 1180.58 1261.82 1117.7 1280.9 C 1104.6 1284.87 1092.78 1296.74 1076.11 1299.83 C 1035.84 1307.28 985.638 1309.78 948.736 1289.47 C 934.527 1282.04 918.131 1278.88 902.813 1273.09 C 826.085 1244.06 767.754 1191.16 702.505 1143.61 C 674.743 1123.15 645.453 1104.85 614.895 1088.87 C 660.821 1031.92 664.059 999.77 686.934 933.334 C 697.837 901.668 713.008 873.075 730.107 844.509 C 707.028 813.219 692.565 784.695 686.705 744.908 C 682.486 716.268 683.375 668.978 700.866 643.801 C 709.747 631.019 729.747 629.114 744.551 627.376 C 812.861 623.039 854.976 647.03 900.265 695.444 L 901.886 694.77 C 985.441 660.164 1067.66 661.772 1150.73 696.053 z" fill="rgb(34,211,238)" transform="translate(0,0)"></path>
<path d="M 1025.42 1014.16 C 1028.63 1008.65 1031.88 1003.12 1035.5 997.877 C 1106.52 895.106 1263.59 922.45 1352.15 984.882 C 1362.82 1016.74 1375.38 1052.1 1395.16 1079.4 L 1379.96 1088 C 1319.92 1087.57 1259.88 1087.63 1199.84 1088.15 C 1176.71 1141.28 1157.11 1206.53 1116.1 1248.67 C 1092.74 1272.68 1073.76 1278.93 1041.29 1279.17 L 1029.25 1279.05 C 1047.24 1258.92 1075.54 1219.62 1092.81 1196.97 L 1026.09 1167.86 C 1003.61 1177.97 980.933 1187.65 958.079 1196.9 C 978.332 1224 1000.97 1252.27 1021.86 1279.24 C 1008.22 1279.25 985.145 1280.27 972.841 1275.15 C 925.404 1255.4 901.048 1193.42 881.7 1149.33 L 854.61 1087.62 L 720.738 1087.82 C 704.911 1087.78 687.722 1088.87 671.995 1087.63 C 668.882 1087.39 658.058 1081.73 654.238 1079.91 C 674.788 1052.05 686.649 1018.1 696.974 985.376 C 744.941 951.39 802.433 933.811 860.659 929.425 C 875.54 927.669 905.512 930.355 919.873 934.292 C 973.065 948.871 997.775 969.164 1025.42 1014.16 z" fill="rgb(9,9,11)" transform="translate(0,0)"></path>
<path d="M 1147.14 991.867 C 1172.04 988.131 1195.29 1005.18 1199.22 1030.05 C 1203.15 1054.93 1186.28 1078.31 1161.44 1082.43 C 1136.33 1086.6 1112.63 1069.5 1108.66 1044.36 C 1104.68 1019.21 1121.96 995.644 1147.14 991.867 z" fill="rgb(34,211,238)" transform="translate(0,0)"></path>
<path d="M 889.669 991.858 C 914.719 988.225 937.95 1005.64 941.481 1030.71 C 945.012 1055.77 927.498 1078.93 902.42 1082.36 C 877.487 1085.77 854.489 1068.38 850.979 1043.46 C 847.468 1018.54 864.765 995.471 889.669 991.858 z" fill="rgb(34,211,238)" transform="translate(0,0)"></path>
<path d="M 1010.95 696.42 C 1054.71 693.91 1105.76 704.228 1144.94 722.716 C 1244.45 769.668 1302.53 845.923 1340.22 946.429 C 1245.23 894.954 1117.63 877.321 1033.88 959.604 L 1025.6 968.762 C 950.313 875.433 803.089 894.623 709.144 946.914 C 716.176 928.482 723.352 910.824 732.394 893.271 C 788.238 784.852 887.101 705.023 1010.95 696.42 z" fill="rgb(9,9,11)" transform="translate(0,0)"></path>
<path d="M 1285.65 651.425 C 1299.99 650.344 1316.19 653.35 1330.05 656.727 C 1334.83 667.103 1337.44 676.663 1339.15 688.006 C 1346.28 735.156 1334.17 783.193 1305.55 821.334 C 1301.44 815.27 1298.77 811.937 1293.99 806.352 C 1306.9 784.265 1311.99 755.07 1308.77 729.77 C 1300.37 661.207 1226.07 683.855 1189.93 713.923 C 1184.87 711.226 1179.86 709.006 1174.66 706.635 C 1207.68 671.737 1237.07 654.689 1285.65 651.425 z" fill="rgb(9,9,11)" transform="translate(0,0)"></path>
<path d="M 753.841 651.424 C 802.45 648.134 843.79 672.213 876.498 705.92 L 861.73 713.965 C 837.478 695.926 799.626 676.252 768.056 688.377 C 754.765 693.482 748.674 705.266 743.883 717.847 C 736.107 747.705 742.152 779.635 756.403 806.588 C 752.311 811.275 748.733 816.363 745.042 821.379 C 711.784 773.809 697.297 711.55 721.14 656.641 C 733.222 653.257 741.309 652.373 753.841 651.424 z" fill="rgb(9,9,11)" transform="translate(0,0)"></path>
<path d="M 712.263 1118.28 L 841.192 1118.37 C 844.577 1125.7 847.76 1133.12 850.736 1140.62 C 813.665 1140.13 776.59 1139.96 739.516 1140.11 C 731.509 1132.88 720.894 1125.02 712.263 1118.28 z" fill="rgb(9,9,11)" transform="translate(0,0)"></path>
<path d="M 1211.54 1118.2 L 1339.47 1118.24 C 1331.3 1123.68 1327.26 1126.76 1319.71 1133.16 L 1311.66 1140.38 C 1275 1140.06 1238.34 1140.01 1201.68 1140.23 C 1205.49 1133.32 1208.51 1125.53 1211.54 1118.2 z" fill="rgb(9,9,11)" transform="translate(0,0)"></path>
<path d="M 780.804 1172.14 C 805.002 1171.07 840.41 1171.66 865.032 1172.1 C 867.437 1177.99 870.926 1185.28 873.91 1190.95 C 851.867 1190.43 829.192 1190.98 807.049 1190.9 C 798.408 1184.59 789.44 1178.46 780.804 1172.14 z" fill="rgb(9,9,11)" transform="translate(0,0)"></path>
<path d="M 1188.28 1171.92 L 1270.2 1171.9 C 1264.51 1175.69 1258.89 1179.58 1253.34 1183.57 C 1249.88 1185.88 1247.09 1187.62 1243.54 1189.72 L 1241.81 1190.76 C 1221.32 1191.21 1199.74 1190.97 1179.16 1190.93 C 1182.56 1184.77 1185.6 1178.43 1188.28 1171.92 z" fill="rgb(9,9,11)" transform="translate(0,0)"></path>
<path d="M 1163.48 1222.53 C 1171.22 1222.31 1189.89 1221.59 1196.81 1223.03 C 1195.31 1224.12 1193.87 1225.05 1192.32 1226.05 C 1184.16 1234.12 1158.17 1243.14 1147.28 1246.94 C 1152.42 1238.7 1158.25 1230.77 1163.48 1222.53 z" fill="rgb(9,9,11)" transform="translate(0,0)"></path>
<path d="M 854.241 1223.06 C 863.916 1222.35 878.725 1222.64 888.82 1222.63 C 893.229 1230.15 898.921 1238.88 902.902 1246.33 C 887.009 1240.97 867.984 1232.43 854.241 1223.06 z" fill="rgb(9,9,11)" transform="translate(0,0)"></path>
<path d="M 1073 1397.06 C 1074.08 1396.91 1074.61 1397.14 1075.74 1397.33 C 1080.5 1403.44 1086.58 1415.4 1090.55 1422.52 C 1117.68 1471.19 1125.46 1508.75 1126.6 1563.56 C 1111.26 1568.84 1079.2 1574.25 1063.24 1575.92 L 1048.66 1577.03 C 1050.28 1514.28 1040.3 1476.75 1006.61 1422.78 C 1023.42 1413.87 1054.91 1403.02 1073 1397.06 z" fill="rgb(9,9,11)" transform="translate(0,0)"></path>
<path d="M 1178.48 1373.41 C 1195.89 1371.06 1234.18 1373.75 1251.67 1375.41 C 1273.44 1415.69 1280.43 1443.55 1283.8 1488.87 C 1272.66 1496.58 1261.9 1503.37 1250.41 1510.57 C 1236.81 1518.41 1221.53 1527.5 1207.11 1533.49 C 1208.74 1473.82 1195.66 1425.32 1164.53 1374.24 C 1169.16 1374.02 1173.84 1373.7 1178.48 1373.41 z" fill="rgb(9,9,11)" transform="translate(0,0)"></path>
<path d="M 941.532 1459.79 C 959.154 1481.87 969.546 1544.37 972.839 1573.97 C 958.448 1572.42 945.292 1569.52 931.265 1566.29 L 916.88 1562.69 C 912.67 1536.97 907.127 1516.65 892.618 1494.79 C 907.698 1483.46 925.689 1469.53 941.532 1459.79 z" fill="rgb(9,9,11)" transform="translate(0,0)"></path>
<metadata><recraft-signature>{"signed_by": "recraft", "signature_b64": "N3BrtWGluD9fScA3+0cXlLF96+hkKlxUxEO2O6IbnsUpi6VC+lneEdVFZ2XXcR2Z3P0XOXF81UXhLo2ci7o6Dw==", "signing_algo": "Ed25519", "generation_timestamp": 1782157282, "identifier": "c70a2909-4e4b-41a4-98df-bfef3227859f"}</recraft-signature></metadata></svg>